<?xml version="1.0" standalone="no"?>
<!DOCTYPE svg PUBLIC "-//W3C//DTD SVG 20010904//EN"
 "http://www.w3.org/TR/2001/REC-SVG-20010904/DTD/svg10.dtd">
<svg version="1.0" xmlns="http://www.w3.org/2000/svg"
 width="495.000000pt" height="505.000000pt" viewBox="0 0 495.000000 505.000000"
 preserveAspectRatio="xMidYMid meet">
<metadata>
Created by potrace 1.16, written by Peter Selinger 2001-2019
</metadata>
<g transform="translate(0.000000,505.000000) scale(0.100000,-0.100000)"
fill="#000000" stroke="none">
<path d="M2100 5034 c-159 -20 -343 -63 -434 -101 -44 -19 -103 -42 -131 -51
-57 -18 -195 -86 -270 -132 -27 -17 -65 -38 -84 -46 -19 -9 -49 -26 -65 -39
-17 -12 -40 -26 -52 -29 -12 -4 -26 -18 -32 -31 -6 -14 -20 -25 -30 -25 -10 0
-31 -14 -48 -31 -16 -17 -52 -48 -80 -69 -57 -43 -257 -241 -282 -280 -9 -14
-37 -50 -63 -80 -50 -60 -189 -264 -189 -278 0 -5 -8 -20 -19 -33 -55 -71
-180 -367 -251 -594 -16 -53 -50 -257 -57 -350 -18 -228 0 -818 27 -899 6 -16
10 -39 10 -52 0 -13 6 -38 14 -56 8 -18 28 -78 46 -133 17 -55 37 -113 45
-130 7 -16 28 -66 45 -110 17 -44 55 -123 85 -175 29 -52 63 -113 75 -135 12
-22 31 -49 41 -61 10 -11 19 -24 19 -30 0 -9 56 -82 165 -216 70 -87 264 -288
277 -288 5 0 32 -21 60 -47 27 -27 62 -55 78 -63 15 -8 75 -46 132 -84 105
-71 179 -113 303 -173 39 -18 78 -38 87 -43 10 -6 26 -10 36 -10 10 0 22 -4
28 -9 11 -10 226 -83 299 -101 55 -14 75 -17 215 -26 52 -3 99 -10 104 -15 14
-13 536 -12 536 1 0 6 31 10 74 10 75 0 198 19 296 46 125 34 250 77 250 85 0
5 10 9 23 9 34 0 317 146 436 226 186 124 293 207 350 270 24 27 82 90 130
139 101 105 154 172 243 310 60 93 79 126 157 268 16 28 41 86 55 127 15 41
33 88 41 105 14 31 56 148 80 220 31 96 47 188 52 303 3 67 10 125 14 128 12
7 12 541 1 548 -5 3 -12 59 -15 124 -6 115 -18 180 -58 312 -41 132 -134 368
-180 455 -21 39 -51 96 -69 128 -110 209 -409 561 -585 691 -38 28 -83 61
-100 74 -60 45 -149 102 -159 102 -5 0 -19 9 -30 19 -22 21 -275 153 -317 166
-13 4 -44 16 -69 28 -100 45 -130 56 -191 72 -217 56 -325 67 -694 70 -181 2
-305 -2 -375 -11z m683 -139 c20 -8 61 -15 91 -15 39 0 55 -4 60 -15 3 -10 19
-15 42 -15 21 0 51 -4 68 -10 17 -5 90 -28 163 -50 160 -49 389 -162 547 -270
60 -41 118 -81 130 -89 11 -8 46 -38 76 -66 30 -28 81 -71 113 -95 32 -24 67
-57 79 -74 12 -17 47 -60 78 -96 86 -98 188 -237 217 -294 14 -28 35 -64 48
-81 42 -58 152 -291 189 -405 8 -25 26 -94 41 -155 14 -60 30 -125 36 -143 6
-18 15 -63 20 -100 5 -37 14 -71 19 -76 6 -6 10 -130 10 -312 0 -245 -3 -308
-15 -337 -8 -20 -15 -58 -15 -84 0 -27 -6 -57 -14 -68 -7 -11 -16 -38 -19 -60
-11 -85 -92 -355 -107 -355 -4 0 -13 -19 -20 -42 -8 -24 -22 -58 -33 -77 -10
-18 -25 -54 -34 -80 -8 -25 -25 -60 -38 -77 -13 -17 -32 -46 -43 -65 -49 -84
-91 -151 -118 -183 -16 -18 -69 -83 -119 -142 -95 -115 -137 -159 -195 -202
-19 -15 -57 -51 -84 -79 -27 -29 -55 -53 -62 -53 -6 0 -30 -15 -53 -32 -77
-62 -96 -75 -165 -118 -100 -61 -333 -176 -386 -190 -25 -7 -54 -16 -65 -20
-47 -18 -232 -70 -251 -70 -11 0 -24 -4 -30 -10 -5 -5 -37 -12 -70 -15 -34 -2
-74 -10 -90 -16 -40 -17 -579 -26 -598 -10 -7 6 -48 16 -92 21 -43 6 -83 15
-88 20 -6 6 -21 10 -35 10 -13 0 -49 7 -80 16 -318 92 -519 187 -757 358 -37
26 -76 51 -87 55 -10 4 -86 74 -168 155 -157 156 -294 317 -330 389 -12 23
-29 51 -39 62 -37 43 -170 289 -170 316 0 5 -11 32 -24 62 -50 108 -103 279
-113 357 -2 19 -10 58 -18 85 -35 126 -38 167 -42 473 -2 209 0 312 7 312 5 0
10 15 10 33 0 17 7 61 16 97 8 36 19 85 24 110 12 65 65 248 84 295 56 133
132 285 204 410 85 144 325 436 413 501 26 19 62 51 80 71 67 77 324 245 520
341 127 62 211 92 349 127 58 14 125 32 150 41 25 8 70 17 100 21 30 3 62 9
70 14 8 5 142 9 296 9 228 0 288 -3 317 -15z"/>
<path d="M2430 4628 c-49 -14 -77 -43 -111 -114 -33 -68 -36 -96 -14 -114 8
-7 15 -19 15 -28 0 -9 9 -25 20 -37 19 -20 20 -33 18 -206 l-3 -184 -152 150
c-84 83 -152 158 -153 168 0 9 -3 16 -7 16 -21 -3 -33 2 -33 16 0 8 -11 17
-24 21 -28 7 -66 -3 -66 -16 0 -11 12 2 -310 -326 -146 -148 -319 -327 -385
-397 -66 -71 -180 -189 -252 -263 -73 -74 -133 -141 -133 -150 0 -18 104 -126
130 -136 8 -3 22 -2 31 1 17 7 343 341 464 476 142 159 487 510 500 510 12 0
365 -360 365 -372 0 -7 -10 -13 -22 -13 -33 0 -89 -37 -159 -105 -99 -97 -139
-195 -139 -344 0 -88 3 -105 35 -180 36 -89 119 -194 186 -238 19 -13 45 -32
59 -43 14 -11 30 -20 36 -20 5 0 22 -12 37 -27 l26 -28 5 -735 c3 -404 9 -819
12 -922 6 -202 5 -204 -44 -169 -15 10 -37 21 -49 25 -22 7 -113 126 -113 147
0 6 -7 25 -15 42 -8 18 -16 55 -17 82 l-3 50 -75 0 -75 0 -3 -75 c-3 -70 0
-83 37 -165 48 -108 127 -210 179 -231 20 -8 46 -19 57 -24 11 -4 44 -16 73
-26 l52 -18 0 -55 c0 -105 9 -132 47 -148 63 -26 67 -20 73 97 l5 105 60 20
c33 11 76 30 96 42 31 20 115 107 145 152 21 33 54 124 65 184 6 34 17 74 25
89 9 16 14 58 14 110 0 47 7 107 15 134 22 71 22 619 0 690 -8 27 -15 76 -15
109 0 33 -5 76 -11 95 -6 19 -15 51 -19 70 -27 113 -53 170 -112 246 -48 62
-62 75 -172 159 l-65 50 -1 310 c0 356 3 385 35 385 32 0 98 -51 135 -104 17
-25 35 -46 40 -46 6 0 10 -18 10 -39 0 -22 5 -43 10 -46 14 -9 12 -49 -2 -63
-22 -22 11 -32 97 -30 l80 3 -1 70 c-2 115 -41 200 -138 303 -42 43 -87 79
-130 101 -36 19 -66 37 -66 40 0 4 78 87 174 186 l175 180 198 -201 c408 -413
716 -736 736 -770 15 -26 65 -46 87 -34 11 6 20 14 20 18 0 5 20 32 45 61 25
29 45 57 45 62 0 27 -1001 1064 -1107 1145 l-31 25 -196 -198 -195 -198 5 105
c3 58 7 143 8 190 2 73 7 93 34 145 18 33 32 65 32 70 0 14 -49 106 -69 129
-16 18 -104 67 -118 65 -4 0 -24 -5 -43 -11z m-46 -1210 c8 -67 6 -406 -2
-476 l-7 -53 -60 40 c-46 30 -66 51 -87 93 -64 126 -66 144 -35 252 11 39 30
66 86 123 40 40 78 73 85 73 8 0 16 -20 20 -52z m268 -991 c35 -43 86 -176 98
-252 4 -27 13 -66 19 -85 7 -23 11 -164 11 -421 0 -321 -3 -393 -15 -422 -8
-20 -15 -56 -15 -80 0 -79 -93 -276 -157 -334 -20 -18 -40 -33 -44 -33 -18 0
-21 116 -5 237 13 107 16 241 16 807 l0 680 31 -30 c17 -16 45 -46 61 -67z"/>
</g>
</svg>
